<?xml version="1.0" standalone="no"?>
<!DOCTYPE svg PUBLIC "-//W3C//DTD SVG 20010904//EN"
 "http://www.w3.org/TR/2001/REC-SVG-20010904/DTD/svg10.dtd">
<svg version="1.0" xmlns="http://www.w3.org/2000/svg"
 width="1600.000000pt" height="575.000000pt" viewBox="0 0 1600.000000 575.000000"
 preserveAspectRatio="xMidYMid meet">

<g transform="translate(0.000000,575.000000) scale(0.100000,-0.100000)"
fill="#000000" stroke="none">
<path d="M3978 4309 c-23 -13 -23 -55 -1 -68 14 -7 15 -12 4 -24 -29 -36 34
-78 67 -45 17 17 15 48 -4 55 -11 4 -13 13 -9 33 4 19 1 33 -10 44 -19 19 -24
19 -47 5z"/>
<path d="M4066 4274 c-19 -19 -20 -36 -4 -52 24 -24 78 -8 78 24 0 17 -28 44
-45 44 -7 0 -21 -7 -29 -16z"/>
<path d="M3886 4228 c-19 -27 -5 -58 27 -58 43 0 60 35 31 64 -21 22 -40 20
-58 -6z"/>
<path d="M4965 4045 c-188 -53 -337 -190 -448 -411 -45 -90 -109 -274 -132
-381 -12 -57 -23 -84 -34 -87 -9 -2 -62 -12 -118 -22 -68 -11 -103 -21 -103
-30 0 -10 -100 -13 -484 -13 l-483 -1 -7 37 c-5 31 -2 41 14 52 28 19 25 48
-10 83 -26 25 -36 29 -63 24 -39 -7 -67 -39 -67 -76 0 -31 22 -60 46 -60 9 0
14 -11 14 -30 l0 -30 -100 0 c-55 0 -100 2 -100 4 0 2 7 20 15 39 18 44 19 87
3 122 -11 25 -26 32 -82 37 -24 2 -31 9 -38 36 -12 44 -31 42 -22 -3 l6 -35
-41 0 c-55 0 -81 -26 -81 -80 0 -22 7 -57 15 -77 8 -19 15 -37 15 -38 0 -2
-82 -5 -182 -7 -199 -5 -227 -12 -291 -67 -56 -50 -74 -106 -112 -356 -31
-202 -52 -341 -121 -777 -17 -108 -15 -138 9 -138 9 0 21 50 40 173 15 94 44
278 64 407 20 129 38 237 39 239 2 2 68 0 147 -4 139 -7 145 -8 155 -31 20
-43 58 -58 151 -60 121 -2 121 -2 121 -19 0 -14 -11 -19 -37 -16 -7 1 -13 -5
-13 -13 0 -9 -6 -13 -14 -10 -11 4 -13 0 -9 -16 4 -13 -2 -29 -14 -43 -49 -53
-54 -94 -21 -144 16 -23 28 -31 41 -27 9 3 17 1 17 -5 0 -6 -13 -11 -29 -11
-23 0 -34 8 -52 36 -13 21 -37 43 -58 51 -19 8 -41 22 -48 32 -11 15 -13 14
-28 -6 -9 -13 -22 -23 -29 -23 -15 0 -81 -48 -82 -60 -1 -6 -2 -14 -3 -19 0
-5 -29 -14 -63 -19 l-63 -9 58 -2 c50 -1 57 -3 57 -21 0 -83 110 -135 204 -96
40 17 76 60 76 92 0 19 5 24 25 24 30 0 30 5 0 -150 -27 -145 -33 -153 -150
-196 -38 -14 -80 -30 -92 -35 -41 -16 -42 -97 -1 -123 26 -16 119 7 208 50 93
46 205 154 160 154 -5 0 -10 -7 -10 -15 0 -8 -4 -15 -10 -15 -5 0 -10 -7 -10
-16 0 -8 -4 -12 -10 -9 -5 3 -10 -1 -10 -10 0 -9 -4 -13 -10 -10 -5 3 -10 1
-10 -5 0 -6 -5 -8 -12 -4 -7 4 -8 3 -4 -4 4 -7 2 -12 -3 -12 -20 0 -26 -3 -38
-19 -11 -14 -12 -14 -13 -1 -1 8 -6 4 -12 -10 -6 -15 -12 -20 -15 -12 -3 8
-10 5 -22 -9 -11 -13 -30 -22 -49 -23 -18 0 -32 -5 -32 -10 0 -4 -7 -6 -15 -2
-8 3 -15 1 -15 -4 0 -16 -57 -11 -74 6 -17 16 -21 61 -8 81 4 6 36 21 72 33
36 11 86 34 113 50 47 29 59 30 33 1 -12 -13 -12 -18 -1 -28 10 -9 14 -3 19
30 10 58 48 97 97 97 21 0 40 6 43 13 4 6 5 3 3 -8 -2 -11 3 -33 10 -50 11
-24 13 -25 8 -5 -4 14 -6 37 -6 53 1 27 -12 36 -24 17 -3 -5 -20 -10 -37 -10
-19 0 -42 -9 -56 -22 l-25 -23 6 25 c4 14 11 49 17 77 11 49 13 51 34 41 16
-7 60 -7 144 1 160 15 195 14 218 -5 18 -15 18 -15 -3 -5 -59 29 -97 1 -155
-112 -36 -73 -50 -173 -25 -183 24 -9 76 24 134 83 65 66 97 125 89 164 -5 27
-4 29 28 29 23 0 38 7 47 21 12 16 28 21 94 26 85 7 80 21 -7 22 -27 1 -48 4
-48 9 1 30 64 52 148 52 l52 0 0 -70 c0 -38 -5 -92 -11 -120 l-11 -51 -29 40
c-17 23 -45 45 -65 53 -18 6 -34 18 -34 25 0 7 -7 13 -15 13 -8 0 -15 -7 -15
-15 0 -8 -5 -15 -11 -15 -7 0 -31 -12 -55 -27 -33 -21 -45 -36 -55 -71 -10
-37 -10 -49 4 -77 40 -83 161 -99 238 -31 17 14 31 42 39 77 18 76 22 79 37
26 7 -26 19 -47 27 -47 25 0 39 55 44 171 l4 117 221 7 c121 4 214 11 206 15
-8 5 -110 12 -227 16 -187 6 -212 9 -212 23 0 15 13 17 98 14 53 -1 88 0 77 3
-31 9 -40 21 -26 37 6 8 9 22 5 31 -3 9 -1 16 6 16 6 0 8 -4 5 -10 -3 -5 -3
-10 0 -10 10 0 65 30 65 36 0 2 -10 0 -22 -7 -18 -10 -24 -8 -39 12 -10 13
-19 30 -19 38 0 7 -9 28 -20 46 -24 39 -18 46 59 75 l51 18 17 -31 c25 -45 24
-163 0 -200 -10 -16 -28 -32 -40 -37 -14 -6 -16 -9 -6 -9 25 -1 57 36 70 82
21 78 -11 207 -52 207 -10 0 -20 4 -24 10 -3 5 -15 6 -28 1 -16 -6 -34 -2 -64
14 -23 13 -39 26 -36 29 4 3 101 6 216 6 116 0 208 2 206 4 -3 3 -83 5 -179 6
-96 1 -189 4 -206 7 l-32 5 13 46 c14 53 45 115 45 92 0 -9 -6 -22 -12 -28
-17 -17 5 -32 45 -32 34 0 87 48 87 80 0 29 -46 73 -71 67 -38 -10 -47 49 -25
181 8 48 13 52 67 52 47 0 50 -1 44 -22 -5 -20 -4 -21 5 -5 18 28 29 20 17
-13 -15 -40 1 -81 37 -99 25 -12 33 -11 62 3 39 18 52 55 37 97 -9 23 -8 28 6
28 9 0 39 1 68 3 29 2 60 1 70 -3 10 -3 25 -1 34 4 20 13 50 2 45 -15 -2 -7
-7 -28 -10 -45 l-5 -33 109 0 110 0 -5 -27 c-7 -39 -62 -384 -75 -468 -9 -63
-47 -259 -116 -615 -17 -88 -36 -149 -63 -205 -127 -267 -458 -466 -891 -537
-41 -7 -153 -12 -248 -13 -158 0 -170 -1 -130 -13 72 -21 256 -50 368 -57 372
-24 808 103 995 290 162 161 257 344 284 548 5 34 18 104 30 155 12 51 53 280
91 508 38 228 72 419 75 424 4 6 60 10 129 10 l122 0 23 93 c13 50 25 98 28
105 4 9 -27 12 -131 12 -75 0 -136 1 -136 3 0 33 57 310 80 386 37 125 67 185
113 230 52 50 90 47 217 -13 122 -59 186 -69 238 -37 90 57 97 176 15 252 -55
52 -90 63 -208 66 -72 1 -127 -3 -160 -12z m-1800 -846 c-4 -6 -14 -8 -22 -5
-11 5 -13 2 -8 -11 4 -10 9 -33 12 -50 5 -30 3 -33 -21 -33 -24 0 -26 4 -26
39 0 34 -3 38 -20 34 -30 -8 -24 14 8 25 37 14 85 15 77 1z m-338 -162 c-60
-248 -73 -287 -87 -280 -8 3 -36 8 -62 11 -27 2 -48 8 -48 14 0 5 9 6 20 3 15
-5 20 -2 21 12 0 10 3 13 6 6 2 -7 9 -13 14 -13 6 0 7 5 3 11 -3 6 0 15 7 20
11 7 11 9 -2 9 -8 0 -24 -7 -35 -15 -26 -20 -37 -19 -25 4 8 14 7 22 -3 30
-16 14 -34 -4 -45 -46 -7 -25 -12 -28 -55 -31 -27 -2 -59 -10 -71 -18 -27 -17
-55 -81 -55 -123 l0 -28 -137 -6 c-76 -2 -140 -3 -142 -1 -10 9 45 312 64 348
25 50 85 93 145 105 25 5 146 9 269 9 l223 0 -5 -21z m288 9 c-17 -6 -42 -23
-57 -38 -25 -25 -34 -28 -98 -28 -66 0 -74 -2 -101 -29 -75 -76 17 -172 137
-142 107 27 188 88 205 156 5 22 13 47 16 55 4 8 7 20 7 25 1 10 357 21 382
11 20 -8 0 -62 -34 -94 -31 -30 -55 -71 -66 -114 -4 -19 -13 -28 -25 -28 -29
0 -51 -28 -51 -64 0 -37 21 -61 61 -71 25 -6 26 -8 17 -46 l-10 -39 -127 0
-126 1 35 18 c70 37 91 92 57 144 -15 24 -15 24 23 37 47 15 71 41 89 94 11
33 11 40 -2 53 -14 14 -20 14 -55 0 -39 -16 -39 -16 -52 11 -7 15 -16 34 -20
42 -10 21 -41 19 -54 -5 -6 -10 -17 -25 -23 -33 -15 -16 -17 -88 -3 -97 6 -4
8 -10 5 -15 -3 -5 3 -18 15 -30 l20 -20 -25 0 c-65 0 -96 -90 -55 -158 11 -18
20 -35 20 -39 0 -6 -412 6 -419 12 -11 12 -3 148 17 275 13 80 25 150 26 155
3 7 58 11 152 12 121 0 143 -2 119 -11z m80 4 c-3 -5 -15 -10 -26 -10 -10 0
-19 5 -19 10 0 6 12 10 26 10 14 0 23 -4 19 -10z m658 -24 c-17 -20 -17 -20 0
-7 14 12 20 12 30 1 9 -10 9 -14 -2 -17 -10 -4 -11 -7 -1 -13 7 -5 10 -15 6
-25 -6 -17 -7 -17 -26 0 -10 9 -19 20 -18 24 1 3 -2 14 -6 24 -11 24 0 48 19
41 14 -6 14 -9 -2 -28z m-33 4 c0 -11 -2 -20 -3 -20 -2 0 -12 9 -22 20 -18 19
-17 20 3 20 15 0 22 -6 22 -20z m-34 -28 c-22 -5 -30 3 -21 18 5 8 11 7 22 -2
15 -12 14 -13 -1 -16z m9 -32 c-19 -21 -35 -18 -35 6 0 9 10 14 27 14 25 0 26
-1 8 -20z m25 -24 c0 -19 -4 -23 -19 -19 -17 4 -18 8 -8 24 16 26 27 24 27 -5z
m40 -6 c0 -4 -7 -10 -15 -14 -11 -4 -15 2 -15 21 0 21 2 24 15 13 8 -7 15 -16
15 -20z m-292 -53 c-13 -45 -25 -67 -35 -67 -24 0 -10 64 23 107 14 19 28 33
30 31 1 -2 -6 -34 -18 -71z m42 -57 c0 -5 -4 -10 -10 -10 -5 0 -10 5 -10 10 0
6 5 10 10 10 6 0 10 -4 10 -10z m-13 -52 c-3 -8 -6 -5 -6 6 -1 11 2 17 5 13 3
-3 4 -12 1 -19z m-955 -48 c10 -19 18 -54 18 -77 l0 -43 -56 0 -56 0 4 60 c7
98 56 130 90 60z m-148 -17 c-13 -25 -24 -59 -24 -75 0 -23 -4 -28 -25 -28
-20 0 -25 5 -25 25 0 38 25 90 51 109 41 28 48 19 23 -31z m55 15 c-5 -18 -9
-52 -9 -75 0 -41 -1 -43 -30 -43 -34 0 -37 11 -20 72 9 29 49 78 66 78 1 0 -2
-15 -7 -32z m184 19 c13 -9 14 -19 8 -47 -5 -19 -9 -27 -10 -18 -1 9 -12 30
-26 45 l-24 28 25 -50 c30 -61 28 -89 -7 -93 -25 -3 -26 0 -32 55 -3 32 -8 65
-11 73 -8 19 53 25 77 7z m53 -135 c-11 -10 -15 4 -8 28 l7 25 3 -23 c2 -13 1
-26 -2 -30z m704 -50 c0 -21 -36 -46 -45 -32 -19 31 -64 -65 -65 -138 0 -29 6
-68 14 -86 8 -20 10 -39 5 -47 -5 -8 -9 -26 -9 -41 l0 -28 -155 0 c-148 0
-155 1 -155 20 0 13 -9 22 -26 26 -21 5 -31 2 -45 -17 -15 -20 -30 -24 -96
-30 -114 -11 -256 -10 -219 1 77 23 100 99 50 160 -26 30 -26 33 -15 86 7 30
24 73 39 94 l26 40 279 0 c154 -1 282 2 285 5 3 3 34 5 69 5 53 0 63 -3 63
-18z m-984 -31 c29 -32 30 -41 4 -34 -11 3 -20 9 -20 14 0 5 -6 6 -14 3 -9 -4
-21 6 -31 25 l-16 32 27 -7 c15 -4 38 -19 50 -33z m47 2 c7 -36 5 -37 -26 -12
-33 25 -34 39 -3 39 18 0 25 -7 29 -27z m92 17 c9 -14 -22 -60 -40 -60 -15 0
-45 37 -45 57 0 16 76 18 85 3z m35 -1 c0 -8 4 -8 13 0 11 9 13 5 12 -19 -2
-32 -11 -47 -21 -37 -4 4 -1 14 7 24 12 15 11 15 -13 -1 -29 -19 -32 -16 -22
22 6 23 24 31 24 11z m81 -12 c-10 -9 -11 -8 -5 6 3 10 9 15 12 12 3 -3 0 -11
-7 -18z m820 -7 l24 -19 -40 -1 c-37 -1 -39 -2 -21 -15 10 -8 24 -16 30 -18 8
-3 8 -8 0 -16 -17 -19 -54 28 -47 62 6 32 22 34 54 7z m-112 -16 c6 4 8 -5 5
-21 -7 -44 -13 -55 -26 -47 -8 5 -9 0 -4 -17 9 -28 9 -31 -1 -84 -9 -46 -37
-59 -47 -23 -12 46 -5 124 14 167 17 36 23 41 35 31 8 -6 19 -9 24 -6z m191 3
c0 -16 -56 -38 -77 -30 -11 4 -3 12 28 24 24 10 45 18 47 18 1 1 2 -5 2 -12z
m-88 -89 c19 -28 23 -46 23 -115 l1 -83 -46 0 c-64 0 -90 9 -90 31 0 28 14 30
56 9 48 -25 51 -25 30 -1 -14 15 -15 24 -7 40 6 11 11 30 10 43 -1 19 -3 17
-11 -9 -13 -39 -24 -42 -40 -8 -8 18 -8 39 2 84 11 53 15 59 31 51 10 -6 28
-25 41 -42z m-892 -38 c0 -11 -4 -39 -10 -62 -5 -24 -12 -60 -15 -80 -7 -43
-24 -49 -55 -18 -26 26 -25 67 3 109 12 19 27 43 33 53 6 10 14 15 17 11 4 -3
7 -1 7 6 0 7 5 9 10 6 6 -3 10 -15 10 -25z m64 -52 c22 -30 20 -91 -1 -110
-22 -19 -63 -33 -63 -21 0 23 35 153 41 153 4 0 15 -10 23 -22z m755 -25 c12
-24 6 -29 -17 -15 -7 5 -10 16 -6 26 7 19 7 19 23 -11z m-814 -161 c-5 -4 -11
-14 -13 -22 -2 -8 -8 -21 -13 -30 -6 -10 -7 -6 -3 15 9 38 13 45 27 45 8 0 8
-3 2 -8z m134 -8 c23 -5 23 -6 5 -18 -10 -8 -28 -16 -39 -19 -18 -4 -18 -5 3
-6 12 0 22 -5 22 -10 0 -15 -66 -41 -104 -41 -32 0 -36 3 -36 25 0 16 6 25 16
25 8 0 12 5 9 10 -3 6 -4 19 0 29 5 16 13 18 53 15 26 -3 58 -7 71 -10z m627
-51 c4 -14 2 -34 -5 -45 -8 -13 -8 -23 0 -35 13 -21 -5 -78 -21 -68 -10 6 -12
96 -3 148 6 34 21 35 29 0z m-483 10 c-7 -2 -21 -2 -30 0 -10 3 -4 5 12 5 17
0 24 -2 18 -5z m58 -80 c39 -23 44 -46 22 -91 -18 -37 -22 -39 -58 -27 -17 5
-17 4 3 -11 l23 -17 -42 -43 c-24 -24 -48 -40 -55 -37 -9 3 -12 0 -9 -9 5 -13
-31 -38 -55 -38 -13 0 -13 70 1 108 9 27 14 30 29 22 30 -16 37 -11 11 9 l-24
18 25 41 c18 31 27 39 38 32 23 -15 37 -11 18 4 -10 7 -18 18 -18 24 0 13 29
31 48 32 8 0 27 -8 43 -17z"/>
<path d="M2242 2940 c-23 -21 -32 -36 -27 -49 3 -10 -1 -24 -10 -31 -36 -30
-1 -90 45 -75 14 4 23 -2 35 -22 15 -26 15 -27 9 -3 -6 22 -5 23 10 11 13 -11
16 -11 16 0 0 10 3 10 11 2 9 -9 17 -8 33 2 12 8 34 12 49 9 36 -6 67 11 67
39 0 34 -11 67 -20 62 -5 -3 -6 4 -3 14 4 14 -3 24 -26 35 -17 9 -31 21 -31
26 0 6 -28 10 -63 10 -56 0 -66 -3 -95 -30z"/>
<path d="M2393 2730 c0 -25 2 -35 4 -22 2 12 2 32 0 45 -2 12 -4 2 -4 -23z"/>
<path d="M2300 2713 c0 -10 -3 -28 -6 -40 -6 -22 -3 -23 45 -23 42 0 51 3 50
18 0 10 -3 12 -6 5 -7 -18 -21 -16 -26 5 -4 16 -5 16 -6 0 -1 -12 -9 -18 -25
-18 -23 0 -24 3 -19 35 3 19 3 35 -1 35 -3 0 -6 -8 -6 -17z"/>
<path d="M3138 2497 c-11 -4 -29 -18 -40 -32 -17 -22 -27 -25 -84 -25 -128 0
-182 -67 -115 -142 27 -31 34 -33 93 -32 47 0 77 7 120 27 61 30 128 96 128
126 0 11 4 30 9 43 5 13 9 28 10 33 1 12 -91 14 -121 2z"/>
<path d="M2610 2519 c0 -5 5 -7 10 -4 6 3 10 8 10 11 0 2 -4 4 -10 4 -5 0 -10
-5 -10 -11z"/>
<path d="M2605 2300 c-3 -16 -2 -37 4 -47 9 -15 11 -12 9 17 -1 20 2 41 6 48
4 7 3 12 -3 12 -5 0 -12 -13 -16 -30z"/>
<path d="M2719 2273 c-3 -23 -1 -40 2 -37 11 7 16 39 9 59 -5 15 -8 9 -11 -22z"/>
<path d="M3727 4008 c-21 -22 -36 -42 -33 -45 3 -4 6 -2 6 4 0 5 11 15 24 21
13 6 27 20 31 31 7 23 49 29 61 10 4 -7 7 -39 6 -72 0 -46 -6 -67 -23 -90 -19
-26 -21 -34 -11 -61 11 -27 9 -33 -13 -53 -19 -19 -23 -30 -18 -53 4 -22 0
-36 -12 -50 -47 -52 -111 18 -73 79 8 14 8 29 0 62 -10 39 -9 46 9 65 15 16
19 31 16 55 l-4 34 -1 -38 c-1 -22 -8 -40 -16 -43 -23 -9 -27 -31 -14 -78 9
-36 9 -47 -4 -65 -18 -26 -8 -75 18 -85 7 -3 20 -20 28 -38 13 -30 14 -31 15
-9 1 13 13 35 27 48 21 19 25 31 21 56 -4 25 1 38 21 59 22 24 24 31 14 54
-11 22 -9 30 9 56 17 23 22 47 24 97 1 36 -3 72 -8 79 -18 24 -61 12 -100 -30z"/>
<path d="M3749 3899 c-10 -33 -14 -37 -20 -23 -4 11 -6 0 -6 -26 1 -25 -2 -79
-5 -120 -4 -42 -4 -56 1 -33 4 23 16 52 26 63 16 18 17 20 2 14 -11 -4 -17 -1
-17 7 0 26 28 120 40 134 7 8 7 15 1 19 -6 4 -16 -12 -22 -35z"/>
<path d="M3425 3820 c-4 -6 -16 -8 -28 -5 -21 6 -21 5 -3 -6 13 -8 24 -9 35
-2 14 9 16 3 16 -44 0 -47 -4 -58 -27 -78 -16 -13 -28 -30 -28 -37 0 -9 -3 -9
-10 2 -8 13 -10 12 -10 -3 0 -10 -4 -15 -10 -12 -5 3 -10 -1 -10 -10 0 -11 -5
-15 -15 -11 -9 3 -15 0 -15 -8 0 -8 -8 -16 -17 -18 -32 -8 -38 -11 -53 -26
-10 -11 -15 -11 -18 -3 -3 8 -9 6 -19 -6 -11 -14 -16 -15 -20 -5 -4 10 -8 9
-19 -5 -10 -14 -13 -14 -14 -4 0 11 -3 11 -13 -3 -20 -27 -68 -18 -87 17 -25
44 0 75 83 103 38 12 88 35 110 49 41 27 121 105 108 105 -4 0 -25 -18 -46
-41 -50 -51 -102 -82 -186 -109 -50 -16 -69 -27 -78 -46 -16 -36 -14 -49 13
-81 24 -27 24 -27 82 -15 94 19 215 84 268 143 45 50 46 53 43 107 -3 53 -17
76 -32 52z"/>
<path d="M3977 3769 c-87 -25 -127 -45 -127 -65 0 -12 5 -10 21 7 15 17 19 19
15 7 -3 -10 -1 -18 4 -18 6 0 10 8 10 19 0 14 12 21 48 30 26 7 64 17 85 23
30 9 40 9 47 -1 6 -11 8 -11 12 0 4 11 10 10 27 -6 36 -31 13 -85 -54 -126
-16 -11 -25 -19 -20 -19 24 0 73 40 88 73 22 45 21 53 -3 77 -25 25 -64 25
-153 -1z"/>
<path d="M13570 3759 c-52 -23 -188 -158 -274 -272 -56 -74 -58 -78 -40 -92
17 -13 21 -12 34 7 72 104 128 154 151 131 7 -7 -47 -293 -170 -908 -100 -494
-181 -904 -181 -912 0 -10 23 -13 95 -13 52 0 95 1 95 3 0 6 109 545 115 570
l8 28 34 -33 c46 -43 121 -138 213 -268 102 -145 187 -232 258 -263 99 -44 94
-46 240 93 122 116 130 126 115 142 -15 16 -20 14 -80 -41 -35 -33 -75 -62
-89 -65 -62 -16 -168 78 -348 309 -114 145 -117 155 -50 155 96 0 293 53 388
103 151 80 228 222 198 365 -23 110 -109 184 -194 168 -72 -13 -315 -178 -543
-369 -49 -42 -91 -74 -93 -72 -2 1 47 250 109 551 124 610 130 655 104 684
-23 25 -39 25 -95 -1z m493 -946 c41 -38 42 -155 1 -234 -25 -50 -100 -116
-167 -148 -75 -36 -154 -51 -261 -51 -71 0 -188 19 -202 32 -6 6 241 213 366
307 157 118 213 138 263 94z"/>
<path d="M3335 3739 c-4 -6 -5 -12 -2 -15 2 -3 7 2 10 11 7 17 1 20 -8 4z"/>
<path d="M4111 3714 c0 -11 3 -14 6 -6 3 7 2 16 -1 19 -3 4 -6 -2 -5 -13z"/>
<path d="M3926 3685 c-3 -8 -1 -15 4 -15 6 0 10 7 10 15 0 8 -2 15 -4 15 -2 0
-6 -7 -10 -15z"/>
<path d="M4061 3684 c0 -11 3 -14 6 -6 3 7 2 16 -1 19 -3 4 -6 -2 -5 -13z"/>
<path d="M3852 3670 c3 -8 19 -25 38 -37 26 -18 46 -23 89 -21 43 1 47 2 19 5
-21 2 -38 10 -38 16 0 8 -4 7 -9 -2 -8 -12 -14 -12 -40 -1 -18 7 -39 22 -47
34 -9 11 -14 14 -12 6z"/>
<path d="M10095 3622 c2 -9 4 -24 4 -33 1 -13 15 -17 65 -21 119 -10 181 -60
179 -145 -1 -27 -42 -241 -93 -478 -50 -236 -104 -493 -120 -570 -87 -422
-104 -475 -166 -524 -30 -23 -100 -47 -166 -56 -45 -6 -48 -8 -48 -36 l0 -29
395 0 c370 0 395 1 395 18 0 30 -14 40 -65 47 -119 15 -185 63 -185 133 0 20
13 100 29 177 16 77 57 271 90 430 33 160 94 449 134 643 41 193 76 355 80
358 12 12 166 16 248 6 268 -33 383 -154 382 -402 -1 -184 -48 -312 -159 -429
-113 -120 -239 -171 -426 -171 l-108 0 0 -29 c0 -25 4 -29 38 -35 67 -11 238
-6 325 9 179 31 289 88 417 215 157 155 210 328 164 530 -39 172 -187 314
-379 364 -80 21 -313 34 -706 40 -301 4 -327 3 -324 -12z"/>
<path d="M3220 3615 c-7 -8 -8 -15 -2 -15 5 0 15 7 22 15 7 8 8 15 2 15 -5 0
-15 -7 -22 -15z"/>
<path d="M12020 3619 c-116 -47 -159 -253 -66 -314 97 -64 236 131 183 258
-23 54 -68 76 -117 56z"/>
<path d="M3135 3609 c-11 -17 1 -21 15 -4 8 9 8 15 2 15 -6 0 -14 -5 -17 -11z"/>
<path d="M3948 3462 c-29 -19 -38 -32 -38 -53 0 -15 -4 -31 -10 -34 -5 -3 -10
-19 -10 -35 0 -34 21 -48 68 -45 23 2 37 -3 48 -18 l16 -22 -5 23 c-6 23 -5
24 15 5 17 -14 20 -15 16 -3 -4 11 1 16 19 18 24 2 25 0 19 -36 -3 -20 -6 -49
-6 -64 0 -31 -16 -38 -23 -10 -4 16 -5 16 -6 0 -1 -12 -9 -18 -24 -18 -21 0
-24 5 -24 43 0 24 -5 52 -12 62 -11 17 -12 18 -7 2 3 -10 6 -41 6 -68 l0 -49
50 0 c50 0 50 0 50 33 0 17 3 49 7 70 5 31 10 38 24 34 39 -10 82 58 49 78 -5
3 -10 17 -10 30 0 17 -9 29 -29 40 -16 8 -31 20 -33 26 -2 7 -27 13 -59 14
-43 2 -61 -3 -91 -23z"/>
<path d="M3491 3422 c-6 -12 -17 -22 -24 -22 -22 -1 -92 -55 -95 -75 -12 -68
-6 -95 25 -127 81 -80 253 -24 253 83 0 35 -56 108 -88 115 -15 4 -34 16 -43
27 l-17 20 -11 -21z"/>
<path d="M3756 3398 c-22 -31 -20 -91 2 -111 25 -23 38 -21 56 5 22 31 20 84
-4 108 -26 26 -35 25 -54 -2z m64 -52 c0 -34 -15 -64 -26 -53 -4 3 -1 14 7 23
13 16 12 16 -7 6 -12 -6 -24 -9 -28 -7 -3 3 -2 -1 4 -7 5 -7 10 -17 10 -22 0
-6 -7 -2 -15 8 -20 26 -19 75 2 98 15 17 17 17 35 2 10 -10 18 -31 18 -48z"/>
<path d="M3777 3366 c-4 -10 -5 -21 -2 -24 9 -9 17 6 13 25 -3 17 -4 17 -11
-1z"/>
<path d="M3908 3113 c12 -2 30 -2 40 0 9 3 -1 5 -23 4 -22 0 -30 -2 -17 -4z"/>
<path d="M4049 3017 c-9 -7 -21 -22 -28 -34 -14 -28 -65 -55 -94 -51 -12 1
-33 -5 -47 -15 -56 -39 -128 -8 -150 63 l-10 35 5 -35 c10 -70 99 -115 151
-75 10 8 32 15 47 15 41 0 78 22 115 69 35 43 37 48 11 28z"/>
<path d="M6955 2964 c-111 -57 -269 -317 -416 -681 -29 -73 -54 -131 -56 -129
-2 2 17 77 42 167 26 90 69 242 96 338 50 178 62 274 37 299 -18 18 -64 15
-108 -8 -54 -27 -172 -146 -254 -255 -61 -82 -66 -91 -50 -102 25 -18 26 -18
57 30 55 85 108 130 130 108 12 -12 18 17 -123 -670 -38 -189 -70 -347 -70
-352 0 -5 44 -9 98 -9 l98 0 28 128 c86 389 217 708 350 850 43 47 77 62 136
62 56 0 93 15 126 52 47 50 39 139 -15 171 -36 21 -67 22 -106 1z"/>
<path d="M5920 2963 c-258 -26 -483 -132 -673 -318 -42 -42 -95 -100 -117
-130 -121 -163 -188 -407 -160 -579 21 -130 66 -201 143 -226 34 -11 43 -9 90
14 67 32 162 111 310 255 64 63 117 109 117 103 0 -7 -7 -56 -16 -110 -23
-143 -5 -238 51 -264 48 -22 151 51 284 201 55 62 59 70 46 87 -13 18 -16 17
-62 -27 -122 -117 -155 -105 -129 48 12 73 173 857 191 931 6 24 6 23 -75 15z
m-186 -400 c-29 -142 -57 -278 -63 -302 -8 -38 -28 -63 -148 -183 -211 -212
-255 -240 -311 -193 -37 31 -52 90 -52 209 0 372 204 645 530 711 36 7 72 14
81 14 14 1 9 -35 -37 -256z"/>
<path d="M7406 2939 c-26 -17 -74 -62 -108 -99 -65 -73 -178 -220 -178 -232 0
-4 8 -12 19 -17 15 -9 25 0 66 60 54 79 80 99 101 77 16 -15 17 -6 -115 -683
-34 -170 -61 -318 -61 -328 0 -16 9 -17 91 -15 l92 3 51 255 c57 286 41 248
205 469 159 215 303 370 374 402 21 10 30 9 43 -2 38 -32 40 -19 -70 -584 -19
-99 -49 -251 -65 -337 -17 -86 -33 -168 -37 -182 l-6 -26 96 0 c53 0 96 2 96
4 0 2 22 118 50 256 l50 252 56 81 c240 345 454 569 513 538 45 -24 43 -36
-51 -421 -116 -477 -119 -493 -120 -560 -1 -85 13 -117 58 -136 59 -25 131 0
215 74 43 38 219 255 219 270 0 4 -8 12 -19 19 -16 10 -23 4 -58 -45 -90 -128
-171 -200 -209 -185 -28 10 -13 91 91 488 107 414 119 486 87 557 -11 26 -32
54 -46 63 -40 26 -112 16 -182 -26 -101 -60 -277 -245 -453 -477 -35 -46 -65
-82 -66 -80 -2 2 12 71 32 153 20 88 37 189 40 245 5 85 3 101 -16 138 -25 49
-46 62 -99 62 -117 0 -301 -163 -566 -503 -42 -54 -76 -91 -76 -83 0 9 20 117
45 240 46 230 54 313 33 334 -21 21 -73 13 -122 -19z"/>
<path d="M11876 2949 c-53 -28 -167 -144 -249 -254 -62 -82 -67 -91 -51 -102
25 -18 26 -18 57 30 65 100 137 148 137 91 0 -9 -36 -192 -81 -407 -44 -216
-83 -415 -86 -443 -7 -68 11 -120 47 -139 100 -52 234 31 402 249 62 80 67 91
54 105 -9 8 -17 13 -19 10 -104 -139 -171 -213 -212 -234 -33 -18 -36 -18 -52
-2 -21 21 -16 59 52 387 131 635 140 691 113 718 -18 18 -68 14 -112 -9z"/>
<path d="M12750 2953 c-140 -49 -296 -216 -408 -438 -183 -366 -173 -702 25
-795 40 -18 60 -22 118 -18 112 8 212 65 357 206 56 55 65 68 57 84 -9 17 -16
13 -77 -42 -161 -146 -308 -161 -374 -38 -20 37 -23 57 -23 153 0 164 48 365
141 586 53 125 98 177 161 186 32 4 57 -2 120 -31 44 -20 88 -36 96 -36 46 0
97 50 97 95 0 35 -30 73 -70 89 -51 20 -160 20 -220 -1z"/>
<path d="M2215 2455 c-40 -39 -29 -105 17 -105 14 0 18 -8 18 -34 0 -40 11
-50 47 -41 24 6 25 9 18 50 -5 36 -3 45 9 45 22 0 29 36 12 68 -25 49 -82 57
-121 17z m105 -74 c-8 -6 -17 -8 -21 -5 -4 2 -2 -14 3 -37 12 -44 1 -66 -26
-56 -11 4 -16 19 -16 46 0 34 -3 38 -20 34 -27 -7 -25 5 3 17 30 12 97 13 77
1z"/>
<path d="M3675 2443 c-4 -17 -9 -23 -14 -15 -4 6 -7 -5 -7 -26 -1 -20 -4 -48
-8 -62 l-7 -25 11 24 c6 13 18 31 28 38 9 8 11 11 3 7 -9 -5 -12 -1 -8 12 13
42 19 74 14 74 -3 0 -8 -12 -12 -27z"/>
<path d="M3766 2105 l6 -35 -46 0 c-38 0 -48 -4 -62 -25 -25 -38 -14 -116 23
-168 28 -41 31 -42 91 -45 57 -3 64 -1 88 25 35 37 54 83 54 131 0 55 -19 75
-76 81 -44 6 -48 9 -56 39 -12 44 -31 42 -22 -3z m-75 -111 c-5 -16 -10 -21
-10 -12 -1 18 10 51 15 45 2 -1 -1 -16 -5 -33z"/>
<path d="M2132 1928 c-16 -16 -15 -47 2 -54 10 -4 13 -15 9 -40 -5 -29 -2 -35
18 -43 14 -5 31 -5 42 1 20 10 23 53 4 65 -7 4 -13 24 -13 43 1 30 -3 35 -24
38 -14 2 -31 -3 -38 -10z"/>
<path d="M2227 1903 c-12 -12 -7 -50 8 -63 35 -29 85 26 53 58 -13 13 -50 16
-61 5z m53 -24 c0 -6 -4 -7 -10 -4 -5 3 -10 11 -10 16 0 6 5 7 10 4 6 -3 10
-11 10 -16z"/>
<path d="M2047 1864 c-14 -15 -6 -54 13 -64 31 -16 62 4 58 38 -2 22 -9 28
-33 30 -17 2 -34 0 -38 -4z"/>
<path d="M2430 1745 c-11 -13 -10 -14 4 -9 9 3 16 10 16 15 0 13 -6 11 -20 -6z"/>
</g>
</svg>
